<svg width="24" height="24" viewBox="0 0 24 24" fill="none" xmlns="http://www.w3.org/2000/svg">
<g id="Group 22">
<path id="Vector" d="M13.557 0.0985143C9.80948 -0.3749 6.1556 0.873088 3.51329 3.5157C0.873143 6.15936 -0.374876 9.81909 0.0985085 13.5594C0.767636 18.8806 5.11974 23.234 10.4422 23.903C10.9496 23.9663 11.4499 23.9991 11.948 23.9991C13.8463 23.9991 15.6651 23.5339 17.2728 22.6316C18.0263 22.2085 19.313 21.2992 19.4899 19.968C19.5614 19.4313 19.4629 18.6122 18.5958 17.7661L18.5923 17.7626C18.8747 17.4357 19.0633 17.1357 19.1594 16.9705C19.4055 16.5416 19.2766 16.0435 18.8501 15.7974C17.7579 15.1646 16.6658 14.5318 15.5736 13.9049C15.358 13.7854 15.1236 13.7514 14.9162 13.8147C14.6736 13.8803 14.5295 14.0608 14.4064 14.2166C13.7619 15.0416 13.708 15.4881 13.4889 15.6685C13.2791 15.8396 12.8444 15.8572 11.9139 15.365C10.5218 14.6303 9.37575 13.4842 8.64105 12.0921C8.14888 11.1617 8.16763 10.7304 8.33755 10.5172C8.51801 10.298 8.96446 10.2441 9.78944 9.59962C9.94529 9.47657 10.1222 9.33244 10.1914 9.08987C10.2511 8.88012 10.2218 8.64925 10.1011 8.43248C9.47421 7.34033 8.84141 6.24819 8.20862 5.15599C7.96253 4.72709 7.46215 4.59819 7.03559 4.84664C6.66412 5.06226 5.60479 5.73137 5.07042 6.97351C4.16694 9.07928 5.24737 11.5424 5.66455 12.487C5.75127 12.6968 6.49537 14.308 8.0762 15.9333C9.69921 17.5176 11.3128 18.2582 11.5225 18.345C12.467 18.7621 14.9301 19.8414 17.036 18.9391C17.2938 18.8278 17.5223 18.693 17.7321 18.5465C17.7473 18.5676 17.7555 18.591 17.7766 18.6121C18.1996 19.0235 18.3766 19.4195 18.325 19.8179C18.2465 20.4121 17.6383 21.0812 16.702 21.6085C14.8962 22.6222 12.7811 23.0124 10.5945 22.737C5.78987 22.13 1.8714 18.209 1.26542 13.4091C0.840036 10.0342 1.965 6.73194 4.34632 4.34972C6.72866 1.96738 10.0308 0.845838 13.4093 1.26882C18.2056 1.87465 22.1267 5.79207 22.73 10.5895C23.0534 13.1488 22.505 15.6353 21.1492 17.78C20.9758 18.0565 21.0566 18.4186 21.332 18.5932C21.6109 18.7702 21.9707 18.6858 22.1453 18.4104C23.6511 16.0316 24.2569 13.2779 23.9007 10.443C23.228 5.12055 18.8782 0.770696 13.557 0.0981189L13.557 0.0985143Z" fill="#02214F"/>
</g>
</svg>
