<svg width="27" height="27" viewBox="0 0 27 27" fill="none" xmlns="http://www.w3.org/2000/svg">
<path id="Vector" d="M13.1235 0C5.87568 0 0 5.87568 0 13.1236C0 19.278 4.23733 24.4424 9.95343 25.8607V17.1341H7.24735V13.1236H9.95343V11.3954C9.95343 6.92871 11.975 4.85834 16.3603 4.85834C17.1919 4.85834 18.6265 5.0216 19.2134 5.18433V8.81955C18.9037 8.787 18.3656 8.77073 17.6974 8.77073C15.5456 8.77073 14.7141 9.58597 14.7141 11.7052V13.1236H19.0008L18.2643 17.1341H14.7141V26.151C21.2124 25.3662 26.2476 19.8334 26.2476 13.1236C26.2471 5.87568 20.3714 0 13.1235 0Z" fill="#02214F"/>
</svg>
