<svg width="40" height="37" viewBox="0 0 40 37" fill="none" xmlns="http://www.w3.org/2000/svg">
<g id="Group 284">
<g id="Group">
<path id="Vector" d="M0.625 36.221C14.1372 36.221 24.5062 36.221 39.375 36.221C39.7205 36.221 40 35.9412 40 35.596C40 35.2509 39.7205 34.971 39.375 34.971H36.2982V32.4295C36.2982 32.0844 36.0187 31.8045 35.6732 31.8045H34.0338V29.8822H35.6732C36.0187 29.8822 36.2982 29.6024 36.2982 29.2572V26.0907C36.2982 25.7455 36.0187 25.4657 35.6732 25.4657H26.6858C26.3403 25.4657 26.0608 25.7455 26.0608 26.0907V26.2629C24.9768 25.929 23.708 25.9956 22.5732 26.5389V7.14733C23.3202 6.53312 23.8388 5.65426 23.9951 4.65637H31.7334C31.8912 5.08881 32.2076 5.44415 32.6109 5.65011L28.5736 14.2059H28.0597C27.8925 14.2059 27.7319 14.2731 27.6147 14.3921C27.4976 14.5111 27.4323 14.6722 27.4347 14.8395C27.4792 18.1436 30.2032 20.8319 33.5071 20.8319C36.8103 20.8319 39.5349 18.1436 39.5801 14.8395C39.5825 14.6722 39.5172 14.5111 39.4 14.3921C39.2828 14.2731 39.1223 14.2059 38.9551 14.2059H38.4406L34.3657 5.57061C34.8857 5.25124 35.2362 4.68346 35.2362 4.03137C35.2362 3.68622 34.9567 3.40637 34.6112 3.40637C34.2657 3.40637 33.9862 3.68622 33.9862 4.03137C33.9862 4.33624 33.7256 4.59381 33.4174 4.59381C33.1225 4.59381 32.8735 4.33624 32.8735 4.03137C32.8735 3.68622 32.594 3.40637 32.2485 3.40637H23.9958C23.6966 1.48045 22.0316 0 20.0232 0C18.0137 0 16.3475 1.47804 16.0458 3.40637H7.58606C7.24061 3.40637 6.96106 3.68622 6.96106 4.03137C6.96106 4.34143 6.71143 4.59381 6.40503 4.59381C6.09802 4.59381 5.84839 4.34143 5.84839 4.03137C5.84839 3.68622 5.56884 3.40637 5.22339 3.40637C4.87793 3.40637 4.59839 3.68622 4.59839 4.03137C4.59839 4.73873 5.00839 5.34619 5.59876 5.64461L1.55884 14.2059H1.04492C0.877687 14.2059 0.717169 14.2731 0.599981 14.3921C0.482794 14.5111 0.417488 14.6722 0.419925 14.8395C0.465094 18.1436 3.18909 20.8319 6.49231 20.8319C9.79554 20.8319 12.5201 18.1436 12.5653 14.8395C12.5678 14.6722 12.5024 14.5111 12.3853 14.3921C12.2681 14.2731 12.1075 14.2059 11.9403 14.2059H11.4258L7.35032 5.56931C7.6912 5.35748 7.95991 5.03918 8.10059 4.65638H16.046C16.2027 5.65599 16.7236 6.53604 17.4738 7.15039V27.7792H9.10339C8.75794 27.7792 8.47839 28.0591 8.47839 28.4042V31.3751H4.60816C4.2627 31.3751 3.98316 31.655 3.98316 32.0001V34.971H0.625C0.279544 34.971 0 35.2509 0 35.596C0 35.9412 0.279544 36.221 0.625 36.221ZM33.5071 19.5819C31.098 19.5819 29.0771 17.7817 28.7353 15.4559C36.1649 15.4559 24.8227 15.4559 38.2794 15.4559C37.937 17.782 35.9155 19.5819 33.5071 19.5819ZM29.9554 14.2059L33.5071 6.68L37.0587 14.2059H29.9554ZM6.49231 19.5819C4.08386 19.5819 2.06299 17.782 1.72058 15.4559C3.29546 15.4559 8.95819 15.4559 11.2646 15.4559C10.9222 17.782 8.90076 19.5819 6.49231 19.5819ZM2.94068 14.2059L6.49231 6.68L10.044 14.2059H2.94068ZM35.0482 34.971H27.5128C28.2037 34.4847 28.7542 33.8288 29.1168 33.0545C29.6288 33.0545 35.2091 33.0545 35.0482 33.0545V34.971ZM32.7838 31.8045H29.5178C29.6943 30.8054 29.4779 29.9824 29.4679 29.8822H32.7838V31.8045ZM27.3108 26.7157H35.0482V28.6322C34.8479 28.6322 28.9322 28.6322 28.9954 28.6322C28.6086 27.9167 28.0173 27.2726 27.3108 26.8311V26.7157ZM24.6783 27.3083C26.6144 27.3083 28.335 28.8861 28.335 30.9647C28.335 32.7736 26.9741 34.3152 25.2222 34.5779C24.8071 34.6414 24.4525 34.6347 24.0613 34.5703C22.619 34.378 21.0284 32.9388 21.0284 30.9647C21.0284 28.8908 22.7147 27.3083 24.6783 27.3083ZM20.0232 1.25C21.5533 1.25 22.7985 2.49481 22.7985 4.02496V4.03137C22.7985 5.56488 21.5533 6.81244 20.0232 6.81244C18.49 6.81244 17.2424 5.56488 17.2424 4.02496C17.2424 2.49481 18.49 1.25 20.0232 1.25ZM20.0232 8.06244C20.4785 8.06244 20.9148 7.98272 21.3232 7.84253V27.3981C20.3415 28.3202 19.7784 29.6003 19.7784 30.9647C19.7784 32.2893 20.3192 33.6605 21.4523 34.6547C21.3855 34.7461 21.3345 34.8498 21.3251 34.9689H18.7238V7.8434C19.1321 7.98309 19.5682 8.06244 20.0232 8.06244ZM17.4738 34.971H14.2236V32.6251H17.4738V34.971ZM9.72839 29.0292H17.4695V31.3751C14.7626 31.3751 12.4525 31.3751 9.72839 31.3751V29.0292ZM5.23316 32.6251C7.94032 32.6251 10.2665 32.6251 12.9736 32.6251V34.971H5.23316V32.6251Z" fill="#E96932"/>
</g>
</g>
</svg>
