<svg width="39" height="34" viewBox="0 0 39 34" fill="none" xmlns="http://www.w3.org/2000/svg">
<g id="Group 286">
<g id="Group">
<g id="Group_2">
<path id="Vector" d="M36.3829 6.13149H25.8919V3.26625C25.8919 1.46502 24.4338 0 22.6417 0H16.3583C14.5665 0 13.1084 1.46502 13.1084 3.26625V6.13149H2.61709C1.1829 6.13149 0 7.34584 0 8.78003V17.2213C0 17.4997 0.1755 17.7472 0.437177 17.8384L1.65121 18.2618L1.6251 31.3189C1.6251 32.7795 2.79919 33.9674 4.24219 33.9674H34.7578C36.2008 33.9674 37.3749 32.7792 37.3749 31.3189V18.2561L38.5644 17.8381C38.8251 17.7466 39 17.499 39 17.2216V8.78003C39 7.34584 37.8171 6.13149 36.3829 6.13149ZM14.4083 3.26625C14.4083 2.18557 15.283 1.3065 16.3583 1.3065H22.6417C23.717 1.3065 24.5917 2.18557 24.5917 3.26625V6.13149H14.4083V3.26625ZM36.075 31.3192C36.075 32.0593 35.484 32.6612 34.7578 32.6612H4.24219C3.51598 32.6612 2.925 32.0593 2.925 31.3205L2.95016 18.7153L16.1218 23.3088V24.9996C16.1218 25.3604 16.4127 25.6529 16.7719 25.6529H22.3722C22.731 25.6529 23.0223 25.3604 23.0223 24.9996V23.3016L36.075 18.7131V31.3192ZM17.4217 24.3461V20.7716H21.7217V24.3461H17.4217ZM37.7001 16.7577L23.022 21.9174V20.1183C23.022 19.7576 22.731 19.4651 22.3718 19.4651H16.7719C16.413 19.4651 16.1218 19.7576 16.1218 20.1183V21.9255L1.2999 16.7568V8.78003C1.2999 8.05696 1.89181 7.43799 2.61709 7.43799H36.3829C37.1085 7.43799 37.7001 8.05602 37.7001 8.78003V16.7577Z" fill="#E96932"/>
</g>
</g>
</g>
</svg>
