<svg width="40" height="45" viewBox="0 0 40 45" fill="none" xmlns="http://www.w3.org/2000/svg">
<g id="Group 287">
<path id="Vector" fill-rule="evenodd" clip-rule="evenodd" d="M37.1418 23.8471C38.0134 23.8471 38.7652 23.2315 38.9359 22.3762C39.1048 21.5209 38.6472 20.6655 37.8427 20.3314C37.0364 19.9973 36.1066 20.2788 35.6236 21.0033C35.1388 21.7297 35.2332 22.6958 35.8506 23.3114C36.192 23.6546 36.6569 23.8489 37.1418 23.8471ZM22.5379 17.0338H29.2913C29.5764 17.0338 29.807 17.2662 29.807 17.5513C29.807 17.8364 29.5764 18.0671 29.2913 18.0671H22.5379V21.5046H34.3306C34.5975 20.0501 35.9286 19.0404 37.4014 19.1748C38.8723 19.3092 40 20.5422 40 22.0204C40 23.4986 38.8723 24.7316 37.4014 24.866C35.9286 25.0004 34.5976 23.9907 34.3306 22.5361H22.5379V25.9737H29.2913C29.5764 25.9737 29.807 26.2043 29.807 26.4894C29.807 26.7746 29.5764 27.007 29.2913 27.007H22.5379V30.3828H27.0033C27.1414 30.3828 27.2794 30.4119 27.4047 30.47C27.5372 30.5299 27.6516 30.6225 27.7388 30.7388L30.0832 33.8495H32.611C32.878 32.3949 34.2091 31.3852 35.6818 31.5178C37.1546 31.6522 38.2804 32.887 38.2804 34.3652C38.2804 35.8434 37.1545 37.0782 35.6818 37.2108C34.2091 37.3452 32.878 36.3355 32.611 34.881H30.0396C29.9016 34.881 29.7636 34.8519 29.6365 34.7938C29.5058 34.7339 29.3914 34.6413 29.3042 34.5251L26.9562 31.4125H22.538V32.967L22.5361 32.9688C22.5361 33.2539 22.3055 33.4846 22.0204 33.4846C17.9236 33.4846 14.1392 31.3 12.0928 27.7535C10.0444 24.2069 10.0444 19.836 12.0928 16.2894C14.1394 12.7429 17.9238 10.5584 22.0204 10.5584C22.3055 10.5584 22.5361 10.789 22.5361 11.0741V12.6286H26.9543L29.3024 9.51604L29.3042 9.51786C29.3914 9.40164 29.5058 9.30903 29.6365 9.2491C29.7636 9.19099 29.9016 9.16194 30.0397 9.16194H32.611C32.878 7.70736 34.2091 6.69587 35.6818 6.83027C37.1546 6.96465 38.2823 8.19949 38.2823 9.67768C38.2823 11.1559 37.1546 12.3907 35.6818 12.5251C34.2091 12.6595 32.878 11.648 32.611 10.1934H30.085L27.7406 13.3041H27.7388C27.6516 13.4204 27.5372 13.513 27.4047 13.5729C27.2794 13.631 27.1414 13.6601 27.0033 13.6601H22.5379V17.0359L22.5379 17.0338ZM30.0448 6.31402C30.9165 6.31402 31.6665 5.69842 31.8372 4.84489C32.0079 3.9896 31.5503 3.13426 30.7458 2.80015C29.9395 2.46602 29.0116 2.74749 28.5267 3.47205C28.0437 4.19661 28.1381 5.16269 28.7537 5.77829C29.0969 6.1215 29.5618 6.31402 30.0448 6.31402ZM32.066 6.51014H32.0678C32.7107 5.8673 33.0085 4.95753 32.8723 4.05863C32.7343 3.15973 32.1786 2.38068 31.3741 1.95759C30.5697 1.53447 29.6108 1.51994 28.7937 1.91763C27.9765 2.31533 27.3972 3.07803 27.2337 3.9733H22.5361V0.515732C22.5361 0.379535 22.4816 0.248787 22.3854 0.150725C22.2891 0.0544798 22.1584 0 22.0222 0H19.291C18.8116 0 18.4012 0.346845 18.3231 0.820798L17.6585 4.76143V4.75961C15.986 5.18273 14.3843 5.84553 12.906 6.73174L9.64633 4.41276C9.27225 4.14582 8.7638 4.17306 8.42239 4.48177C8.40786 4.49267 8.39515 4.50538 8.38244 4.51809L4.52172 8.38062H4.5199C4.18032 8.71839 4.13492 9.25409 4.41639 9.64269L6.73356 12.9005C5.84921 14.3805 5.18457 15.9822 4.76324 17.6549L0.822611 18.3213C0.348663 18.3994 0 18.8098 0 19.2892V24.7516C0 25.231 0.348663 25.6414 0.822611 25.7195L4.76324 26.3841H4.76143C5.18454 28.0566 5.84735 29.6583 6.73356 31.1385L4.41458 34.3963C4.14582 34.7686 4.17487 35.2788 4.48358 35.6202C4.49448 35.6329 4.50719 35.6475 4.5199 35.6602L8.38062 39.5227V39.5209C8.71839 39.8623 9.25409 39.9077 9.64455 39.6262L12.906 37.3091C14.386 38.1952 15.9858 38.8581 17.6585 39.2812L18.3231 43.2218V43.22C18.403 43.694 18.8116 44.0408 19.291 44.0408H21.9768H22.0222C22.3073 44.0408 22.5379 43.8102 22.5379 43.5251V40.0693H27.2356C27.5025 41.5221 28.8336 42.5336 30.3046 42.3992C31.7773 42.2648 32.9032 41.0317 32.9032 39.5536C32.9032 38.0754 31.7773 36.8424 30.3046 36.708C28.8336 36.5736 27.5026 37.5832 27.2356 39.0378H22.5379V35.5821C22.5379 35.444 22.4835 35.3133 22.3872 35.217C22.2891 35.119 22.1584 35.0663 22.0222 35.0663C17.3608 35.0663 13.0551 32.5785 10.7232 28.5435C8.39335 24.5067 8.39335 19.5346 10.7232 15.498C13.0549 11.4629 17.3603 8.97521 22.0222 8.97521C22.1584 8.97521 22.2891 8.92255 22.3872 8.82448C22.4835 8.72824 22.5379 8.59749 22.5379 8.45948V5.00372H27.2356C27.4281 6.04971 28.1835 6.90137 29.1986 7.21735C30.2119 7.53333 31.3179 7.26094 32.0697 6.50915L32.066 6.51014ZM30.0448 41.3801C29.175 41.3801 28.425 40.7645 28.2561 39.9092C28.0854 39.0539 28.543 38.1986 29.3475 37.8663C30.1538 37.5339 31.0818 37.8154 31.5648 38.54C32.0497 39.2645 31.9534 40.2288 31.3378 40.8444C30.9964 41.1876 30.5297 41.3801 30.0448 41.3801ZM19.3307 43.0126H21.5044V36.0882C16.5943 35.9193 12.1267 33.2009 9.71726 28.9169C7.3093 24.6331 7.3093 19.4049 9.71726 15.121C12.127 10.8372 16.5943 8.11897 21.5044 7.94975V1.02903H19.3307L18.617 5.26202C18.5861 5.46904 18.4299 5.63429 18.2266 5.68151C16.4324 6.09918 14.7199 6.80922 13.1565 7.78617C12.9804 7.89513 12.757 7.88968 12.5863 7.76801L9.08518 5.27652L5.27714 9.08094L7.75408 12.5603C7.88846 12.731 7.90118 12.9689 7.78677 13.1541C6.8134 14.7122 6.10338 16.421 5.68754 18.2116C5.64396 18.4204 5.47689 18.5802 5.26624 18.6165L1.03143 19.3284V24.7108L5.26262 25.4245C5.46963 25.4572 5.6367 25.6115 5.68392 25.8167C6.10159 27.6109 6.81163 29.3233 7.78858 30.8849C7.89936 31.061 7.89209 31.2862 7.77042 31.4551L5.27711 34.9581L9.08153 38.7625L12.5627 36.2874C12.7334 36.153 12.9695 36.1385 13.1547 36.2529C14.7128 37.2281 16.4234 37.9381 18.2122 38.3539C18.421 38.3975 18.5826 38.5627 18.6171 38.7734L19.3307 43.0126ZM14.6456 29.3967C16.4742 31.229 18.9203 32.3131 21.5045 32.4384V11.6023C18.8023 11.7367 16.2564 12.9153 14.4057 14.8928C12.557 16.8686 11.5474 19.4854 11.591 22.1929C11.6364 24.8987 12.7316 27.4828 14.6456 29.3967ZM36.715 33.0721C36.0994 32.4547 35.1315 32.3585 34.4069 32.8433C33.6806 33.3282 33.3991 34.258 33.7332 35.0624C34.0655 35.8687 34.9227 36.3263 35.778 36.1574C36.6333 35.9867 37.2507 35.2367 37.2507 34.3633C37.2507 33.8802 37.0582 33.4135 36.715 33.0721ZM35.4235 11.5042C36.2952 11.5042 37.047 10.8886 37.2159 10.0333C37.3866 9.17797 36.929 8.32082 36.1245 7.98671C35.3182 7.65439 34.3884 7.93586 33.9036 8.66041C33.4206 9.38498 33.515 10.3511 34.1324 10.9685C34.4738 11.3117 34.9387 11.5042 35.4235 11.5042Z" fill="#E96932"/>
</g>
</svg>
