<svg width="39" height="41" viewBox="0 0 39 41" fill="none" xmlns="http://www.w3.org/2000/svg">
<g id="Group 283">
<path id="Vector" d="M32.8237 17.3769C34.9982 17.3769 36.7739 15.6077 36.7739 13.4267C36.7739 11.2522 35.0047 9.47656 32.8237 9.47656C30.6492 9.47656 28.8735 11.2458 28.8735 13.4267C28.8735 15.6013 30.6428 17.3769 32.8237 17.3769ZM32.8237 10.4416C34.4707 10.4416 35.8089 11.7798 35.8089 13.4267C35.8089 15.0737 34.4707 16.4119 32.8237 16.4119C31.1767 16.4119 29.8386 15.0737 29.8386 13.4267C29.8386 11.7798 31.1767 10.4416 32.8237 10.4416Z" fill="#E96932"/>
<path id="Vector_2" d="M13.8835 14.7521C16.0581 14.7521 17.8337 12.9828 17.8337 10.8019C17.8337 8.62734 16.0645 6.85168 13.8835 6.85168C11.709 6.85168 9.93335 8.6209 9.93335 10.8019C9.93978 12.9828 11.709 14.7521 13.8835 14.7521ZM13.8835 7.82315C15.5305 7.82315 16.8687 9.16132 16.8687 10.8083C16.8687 12.4553 15.5305 13.7935 13.8835 13.7935C12.2366 13.7935 10.8984 12.4553 10.8984 10.8083C10.9048 9.16132 12.243 7.82315 13.8835 7.82315Z" fill="#E96932"/>
<path id="Vector_3" d="M27.5226 26.9627C27.5419 26.9499 27.5548 26.937 27.5612 26.9241C27.6835 26.8341 27.7735 26.6989 27.7735 26.5381V23.4886C27.7735 23.2248 27.5548 23.0061 27.291 23.0061H0.482514C0.21874 23.0061 0 23.2248 0 23.4886V26.5381C0 26.7118 0.0965028 26.8534 0.231607 26.937C0.23804 26.9434 0.23804 26.9499 0.250907 26.9627L5.35269 29.7356V40.3702C5.35269 40.634 5.57143 40.8527 5.83521 40.8527C6.09898 40.8527 6.31772 40.634 6.31772 40.3702V29.9286H21.4494V40.3702C21.4494 40.634 21.6681 40.8527 21.9319 40.8527C22.1957 40.8527 22.4144 40.634 22.4144 40.3702V29.7356L27.5226 26.9627ZM0.965029 23.9711H26.8149V26.0556H0.965029V23.9711ZM5.95744 28.9635L2.3804 27.0206H25.3931L21.8096 28.9635H5.95744Z" fill="#E96932"/>
<path id="Vector_4" d="M20.6197 8.38932H26.59L28.5908 9.76609C28.6745 9.82399 28.771 9.84972 28.861 9.84972C28.9383 9.84972 29.0155 9.83042 29.0862 9.79182C29.2471 9.70819 29.3436 9.54092 29.3436 9.36721V4.19466C29.3436 1.87859 27.4585 0 25.1489 0H20.6197C18.3036 0 16.425 1.88502 16.425 4.19466C16.425 6.50429 18.3101 8.38932 20.6197 8.38932ZM20.6197 0.965029H25.1489C26.931 0.965029 28.3785 2.41257 28.3785 4.19466V8.44722L27.0082 7.50792C26.9246 7.45002 26.8345 7.42429 26.738 7.42429H20.6197C18.8376 7.42429 17.3901 5.97674 17.3901 4.19466C17.3901 2.41257 18.8376 0.965029 20.6197 0.965029Z" fill="#E96932"/>
<path id="Vector_5" d="M10.3838 19.6223V21.5588C10.3838 21.8225 10.6025 22.0413 10.8663 22.0413C11.1301 22.0413 11.3488 21.8225 11.3488 21.5588V19.6223C11.3488 19.3585 11.1301 19.1398 10.8663 19.1398C10.6025 19.1398 10.3838 19.3521 10.3838 19.6223Z" fill="#E96932"/>
<path id="Vector_6" d="M16.425 19.6223V21.5588C16.425 21.8225 16.6438 22.0413 16.9076 22.0413C17.1713 22.0413 17.3901 21.8225 17.3901 21.5588V19.6223C17.3901 19.3585 17.1713 19.1398 16.9076 19.1398C16.6438 19.1398 16.425 19.3521 16.425 19.6223Z" fill="#E96932"/>
<path id="Vector_7" d="M20.1048 3.50641H25.4447C25.7084 3.50641 25.9272 3.28767 25.9272 3.0239C25.9272 2.76012 25.7084 2.54138 25.4447 2.54138H20.1048C19.8411 2.54138 19.6223 2.76012 19.6223 3.0239C19.6223 3.28767 19.8346 3.50641 20.1048 3.50641Z" fill="#E96932"/>
<path id="Vector_8" d="M20.1048 5.84796H22.8777C23.1415 5.84796 23.3602 5.62922 23.3602 5.36545C23.3602 5.10167 23.1415 4.88293 22.8777 4.88293H20.1048C19.8411 4.88293 19.6223 5.10167 19.6223 5.36545C19.6223 5.62922 19.8346 5.84796 20.1048 5.84796Z" fill="#E96932"/>
<path id="Vector_9" d="M7.30215 22.0414C7.56593 22.0414 7.78466 21.8226 7.78466 21.5589V19.5773C7.78466 19.468 7.7911 19.365 7.80397 19.2557C7.95194 17.8081 9.27724 16.6758 10.8277 16.6758H16.9524C18.5029 16.6758 19.8282 17.8081 19.9762 19.2492C19.9891 19.3522 19.9891 19.4615 19.9891 19.5709V21.5524C19.9891 21.8162 20.2078 22.0349 20.4716 22.0349C20.7353 22.0349 20.9541 21.8162 20.9541 21.5524V19.5709C20.9541 19.4294 20.9477 19.2943 20.9348 19.1527C20.7418 17.2227 18.9919 15.7043 16.9524 15.7043H10.8277C8.78829 15.7043 7.03838 17.2162 6.84537 19.1463C6.8325 19.2814 6.82607 19.4229 6.82607 19.5645V21.546C6.81964 21.8291 7.03194 22.0414 7.30215 22.0414Z" fill="#E96932"/>
<path id="Vector_10" d="M36.2079 17.2804C36.1307 17.2804 36.0535 17.2997 35.9827 17.3383L31.7494 19.5579L22.2342 20.9346C21.9705 20.9732 21.7903 21.2177 21.8289 21.4815C21.8675 21.7453 22.1184 21.9254 22.3758 21.8868L31.9746 20.4972C32.0261 20.4907 32.084 20.4714 32.129 20.4457L36.3237 18.2454C37.2823 18.3033 38.0414 19.1011 38.0414 20.0725V30.4434C38.0414 31.6915 37.0249 32.708 35.7768 32.708H30.7394C30.437 32.708 30.1475 32.8238 29.9352 33.0425C29.7229 33.2548 29.6006 33.5443 29.6006 33.8467L29.6135 40.3703C29.6135 40.6341 29.8322 40.8528 30.096 40.8528C30.3598 40.8528 30.5785 40.6341 30.5785 40.3703L30.5592 33.8467C30.5592 33.7824 30.5914 33.7438 30.6107 33.7245C30.63 33.7052 30.6686 33.673 30.7329 33.673H35.7704C37.5525 33.673 39 32.2255 39 30.4434V20.0725C39 18.5285 37.7519 17.2804 36.2079 17.2804Z" fill="#E96932"/>
<path id="Vector_11" d="M33.1328 28.9508V23.4952C33.1328 23.2314 32.914 23.0127 32.6502 23.0127H29.2212C28.9574 23.0127 28.7387 23.2314 28.7387 23.4952C28.7387 23.759 28.9574 23.9777 29.2212 23.9777H32.1677V28.5777L27.2075 29.8065C26.6992 29.9352 26.3454 30.3855 26.3454 30.9131L26.3325 40.3703C26.3325 40.6341 26.5448 40.8529 26.815 40.8529C27.0788 40.8529 27.2975 40.6405 27.2975 40.3703L27.3104 30.9066C27.3104 30.823 27.3619 30.7587 27.4455 30.7394L32.7725 29.4205C32.9848 29.3626 33.1328 29.1696 33.1328 28.9508Z" fill="#E96932"/>
</g>
</svg>
