<svg width="37" height="42" viewBox="0 0 37 42" fill="none" xmlns="http://www.w3.org/2000/svg">
<g id="Group 285">
<path id="Vector" d="M3.59268 7.81476H10.9521C11.0868 7.81476 11.216 7.76125 11.3113 7.66598C11.4066 7.57072 11.4601 7.44152 11.4601 7.3068C11.4601 7.17207 11.4066 7.04287 11.3113 6.94761C11.216 6.85235 11.0868 6.79883 10.9521 6.79883H3.59268C3.45796 6.79883 3.32876 6.85235 3.2335 6.94761C3.13823 7.04287 3.08472 7.17207 3.08472 7.3068C3.08472 7.44152 3.13823 7.57072 3.2335 7.66598C3.32876 7.76125 3.45796 7.81476 3.59268 7.81476Z" fill="#E96932"/>
<path id="Vector_2" d="M2.34461 31.3205H13.2701C13.3474 31.4033 13.4258 31.4855 13.5064 31.566C15.2234 33.2791 17.5311 34.2699 19.9557 34.3349C22.3803 34.3999 24.7378 33.5342 26.5442 31.9155L29.7728 35.1441L28.7726 36.1444C28.6773 36.2396 28.6238 36.3688 28.6238 36.5035C28.6238 36.6383 28.6773 36.7675 28.7726 36.8627L32.8509 40.941C33.0766 41.1667 33.3445 41.3457 33.6394 41.4679C33.9343 41.59 34.2503 41.6529 34.5695 41.6529C34.8887 41.6529 35.2047 41.59 35.4996 41.4679C35.7945 41.3457 36.0624 41.1667 36.2881 40.941C36.5138 40.7153 36.6928 40.4474 36.815 40.1525C36.9371 39.8576 37 39.5416 37 39.2224C37 38.9032 36.9371 38.5872 36.815 38.2923C36.6928 37.9974 36.5138 37.7295 36.2881 37.5038L32.2098 33.4254C32.1146 33.3301 31.9854 33.2766 31.8506 33.2766C31.7159 33.2766 31.5867 33.3301 31.4915 33.4254L30.4912 34.4257L27.2623 31.1974C28.1468 30.2116 28.815 29.0516 29.224 27.792C29.6329 26.5324 29.7736 25.2011 29.6368 23.8838C29.5001 22.5665 29.089 21.2925 28.43 20.1437C27.7711 18.9949 26.8788 17.9969 25.8108 17.2138V6.93596C25.8108 6.919 25.8099 6.90205 25.8082 6.88517C25.807 6.87289 25.8049 6.86078 25.8027 6.84876C25.8021 6.84453 25.8016 6.8403 25.8008 6.83598C25.7979 6.8215 25.7942 6.80736 25.7901 6.79365C25.7896 6.79178 25.7893 6.78992 25.7887 6.78814C25.7844 6.77392 25.7793 6.76004 25.7738 6.74641C25.7731 6.7448 25.7726 6.7431 25.7719 6.7415C25.7666 6.72854 25.7605 6.7161 25.7541 6.70365C25.7529 6.70128 25.7519 6.69883 25.7507 6.69646C25.7446 6.68511 25.7377 6.67419 25.7309 6.66344C25.7288 6.66022 25.727 6.65692 25.725 6.65379C25.7182 6.64363 25.7108 6.63406 25.7033 6.62449C25.7005 6.62094 25.6981 6.61721 25.6953 6.61374C25.6856 6.60197 25.6753 6.59071 25.6646 6.57988C25.6636 6.57903 25.6629 6.57801 25.662 6.57708L19.2337 0.14875C19.2328 0.147819 19.2317 0.147057 19.2307 0.146125C19.2199 0.135345 19.2086 0.125129 19.1969 0.115478C19.1936 0.112769 19.19 0.110483 19.1867 0.107859C19.177 0.100239 19.1672 0.0927042 19.1568 0.085762C19.1539 0.0838148 19.1506 0.0821215 19.1476 0.0801743C19.1367 0.0731474 19.1256 0.0662898 19.1142 0.0601096L19.1075 0.0569771C19.0949 0.0504582 19.0821 0.0442779 19.0691 0.0387749C19.0677 0.0381823 19.0662 0.037759 19.0648 0.0372511C19.0509 0.0315787 19.0369 0.0264144 19.0225 0.022012L19.0181 0.0209114C19.0038 0.0166784 18.9893 0.0129533 18.9745 0.00990545C18.9707 0.00922816 18.9668 0.00888947 18.9629 0.00821218C18.9505 0.00601099 18.9381 0.00380984 18.9253 0.00253992C18.9084 0.000842233 18.8914 -5.5086e-06 18.8745 2.69334e-08H2.34461C1.72306 0.000716868 1.12717 0.247921 0.687632 0.687393C0.248097 1.12686 0.000806621 1.72272 0 2.34427V28.9758C0.000694615 29.5974 0.247936 30.1933 0.687482 30.6329C1.12703 31.0725 1.72299 31.3197 2.34461 31.3205ZM31.8503 34.5031L35.5694 38.2223C35.8347 38.4876 35.9837 38.8474 35.9837 39.2225C35.9837 39.5977 35.8347 39.9575 35.5694 40.2228C35.3042 40.488 34.9444 40.6371 34.5692 40.6371C34.194 40.6371 33.8343 40.488 33.569 40.2228L29.8498 36.5037L31.8503 34.5031ZM26.1944 30.8477C24.6059 32.4327 22.4535 33.3228 20.2095 33.3228C17.9656 33.3228 15.8132 32.4327 14.2247 30.8477C14.1239 30.7468 14.0262 30.6441 13.9316 30.5395C13.9028 30.4943 13.8672 30.454 13.8259 30.4198C12.7432 29.176 12.0474 27.643 11.8241 26.0091C11.6007 24.3752 11.8596 22.7117 12.5688 21.223C13.278 19.7342 14.4066 18.4851 15.8161 17.629C17.2255 16.7729 18.8543 16.3472 20.5024 16.4043C22.1504 16.4613 23.746 16.9985 25.0929 17.9499C26.4398 18.9013 27.4794 20.2255 28.084 21.7597C28.6887 23.2939 28.8319 24.9713 28.4962 26.5859C28.1605 28.2004 27.3605 29.6817 26.1944 30.8477ZM19.3825 1.73395L24.0765 6.428H20.7112C20.3589 6.42759 20.0211 6.28741 19.772 6.03821C19.5229 5.78901 19.3828 5.45116 19.3825 5.09881V1.73395ZM1.01594 2.34427C1.01634 1.99201 1.15645 1.65429 1.40554 1.4052C1.65463 1.15611 1.99235 1.016 2.34461 1.0156H18.3666V5.09924C18.3672 5.72093 18.6144 6.31701 19.0539 6.75666C19.4935 7.19632 20.0895 7.44364 20.7112 7.44435H24.7948V16.5651C22.9191 15.5294 20.7479 15.1595 18.635 15.5158C16.5221 15.8721 14.5922 16.9334 13.1598 18.527C11.7274 20.1205 10.8769 22.1521 10.747 24.2909C10.617 26.4296 11.2153 28.5493 12.4443 30.3045H2.34461C1.99233 30.3041 1.6546 30.164 1.40551 29.9149C1.15642 29.6658 1.01632 29.328 1.01594 28.9758V2.34427Z" fill="#E96932"/>
<path id="Vector_3" d="M3.59268 12.2595H22.2182C22.3529 12.2595 22.4821 12.2059 22.5774 12.1107C22.6726 12.0154 22.7261 11.8862 22.7261 11.7515C22.7261 11.6168 22.6726 11.4876 22.5774 11.3923C22.4821 11.297 22.3529 11.2435 22.2182 11.2435H3.59268C3.45796 11.2435 3.32876 11.297 3.2335 11.3923C3.13823 11.4876 3.08472 11.6168 3.08472 11.7515C3.08472 11.8862 3.13823 12.0154 3.2335 12.1107C3.32876 12.2059 3.45796 12.2595 3.59268 12.2595Z" fill="#E96932"/>
<path id="Vector_4" d="M3.59268 16.7043H12.6514C12.7862 16.7043 12.9154 16.6508 13.0106 16.5555C13.1059 16.4602 13.1594 16.331 13.1594 16.1963C13.1594 16.0616 13.1059 15.9324 13.0106 15.8371C12.9154 15.7419 12.7862 15.6884 12.6514 15.6884H3.59268C3.45796 15.6884 3.32876 15.7419 3.2335 15.8371C3.13823 15.9324 3.08472 16.0616 3.08472 16.1963C3.08472 16.331 3.13823 16.4602 3.2335 16.5555C3.32876 16.6508 3.45796 16.7043 3.59268 16.7043Z" fill="#E96932"/>
<path id="Vector_5" d="M3.59268 21.1491H9.60364C9.73836 21.1491 9.86756 21.0956 9.96283 21.0003C10.0581 20.9051 10.1116 20.7759 10.1116 20.6411C10.1116 20.5064 10.0581 20.3772 9.96283 20.282C9.86756 20.1867 9.73836 20.1332 9.60364 20.1332H3.59268C3.45796 20.1332 3.32876 20.1867 3.2335 20.282C3.13823 20.3772 3.08472 20.5064 3.08472 20.6411C3.08472 20.7759 3.13823 20.9051 3.2335 21.0003C3.32876 21.0956 3.45796 21.1491 3.59268 21.1491Z" fill="#E96932"/>
<path id="Vector_6" d="M3.59268 25.5938H9.51898C9.6537 25.5938 9.7829 25.5403 9.87816 25.445C9.97343 25.3498 10.0269 25.2206 10.0269 25.0858C10.0269 24.9511 9.97343 24.8219 9.87816 24.7267C9.7829 24.6314 9.6537 24.5779 9.51898 24.5779H3.59268C3.45796 24.5779 3.32876 24.6314 3.2335 24.7267C3.13823 24.8219 3.08472 24.9511 3.08472 25.0858C3.08472 25.2206 3.13823 25.3498 3.2335 25.445C3.32876 25.5403 3.45796 25.5938 3.59268 25.5938Z" fill="#E96932"/>
<path id="Vector_7" d="M13.9932 20.6411C13.9932 20.7759 14.0467 20.9051 14.1419 21.0003C14.2372 21.0956 14.3664 21.1491 14.5011 21.1491H25.918C26.0527 21.1491 26.1819 21.0956 26.2772 21.0003C26.3724 20.9051 26.4259 20.7759 26.4259 20.6411C26.4259 20.5064 26.3724 20.3772 26.2772 20.282C26.1819 20.1867 26.0527 20.1332 25.918 20.1332H14.5011C14.3664 20.1332 14.2372 20.1867 14.1419 20.282C14.0467 20.3772 13.9932 20.5064 13.9932 20.6411Z" fill="#E96932"/>
<path id="Vector_8" d="M25.918 23.9426H14.5011C14.3664 23.9426 14.2372 23.9961 14.1419 24.0914C14.0467 24.1867 13.9932 24.3159 13.9932 24.4506C13.9932 24.5853 14.0467 24.7145 14.1419 24.8098C14.2372 24.905 14.3664 24.9586 14.5011 24.9586H25.918C26.0527 24.9586 26.1819 24.905 26.2772 24.8098C26.3724 24.7145 26.4259 24.5853 26.4259 24.4506C26.4259 24.3159 26.3724 24.1867 26.2772 24.0914C26.1819 23.9961 26.0527 23.9426 25.918 23.9426Z" fill="#E96932"/>
<path id="Vector_9" d="M25.918 27.7526H14.5011C14.3664 27.7526 14.2372 27.8061 14.1419 27.9013C14.0467 27.9966 13.9932 28.1258 13.9932 28.2605C13.9932 28.3953 14.0467 28.5245 14.1419 28.6197C14.2372 28.715 14.3664 28.7685 14.5011 28.7685H25.918C26.0527 28.7685 26.1819 28.715 26.2772 28.6197C26.3724 28.5245 26.4259 28.3953 26.4259 28.2605C26.4259 28.1258 26.3724 27.9966 26.2772 27.9013C26.1819 27.8061 26.0527 27.7526 25.918 27.7526Z" fill="#E96932"/>
</g>
</svg>
