<?xml version="1.0" encoding="utf-8"?>
<!-- Generator: Adobe Illustrator 28.0.0, SVG Export Plug-In . SVG Version: 6.00 Build 0)  -->
<svg version="1.1" id="Layer_1" xmlns="http://www.w3.org/2000/svg" xmlns:xlink="http://www.w3.org/1999/xlink" x="0px" y="0px"
	 viewBox="0 0 1340.7 369.7" style="enable-background:new 0 0 1340.7 369.7;" xml:space="preserve">
<style type="text/css">
	.st0{fill-rule:evenodd;clip-rule:evenodd;fill:#02214F;}
	.st1{fill:none;stroke:#A1A1A1;stroke-width:4.6;}
	.st2{fill:#A1A1A1;}
	.st3{fill:none;stroke:#000000;stroke-miterlimit:10;}
	.st4{font-family:'ArialMT';}
	.st5{font-size:44.2px;}
	.st6{letter-spacing:8;}
</style>
<g>
	<path class="st0" d="M460.4,0H0v300.4h460.4V0L460.4,0z M171.4,177.5c-14.1,29.5-30.9,39.4-64.1,36l0,0v-8.3l0,0v-93.6
		c0-16.3,0.5-17.1,16.2-23.7H72.1c10.6,3.1,12.4,10.8,12.4,20v7.1c0,26.1,0,52.2,0.1,78.3c0,10-0.5,19.1-12.3,22.9h111.6
		c-12.2-3.8-13.1-13.1-12.5-23.4c0.2-3.5,0.1-7,0-10.5l0,0V177.5L171.4,177.5z M198.8,147.3L198.8,147.3c5.9-7,11.6-13.9,17.2-21
		c4.9-6.2,9.7-12.6,13.3-19.6c4.8-9.3,2.1-14-8.1-16.6c-1.3-0.3-2.5-0.9-3.6-2.4h55.3c0,0.5,0,1,0.1,1.4c-0.7,0.2-1.5,0.3-2.2,0.4
		c-1.6,0.2-3.3,0.5-4.7,1.2c-1.8,0.9-3.8,1.7-5.7,2.5c-5.2,2.2-10.5,4.4-14.2,8.1c-9.3,9.4-18,19.4-26.8,29.7
		c-3.5,4.1-7.1,8.2-10.7,12.3c3.5,4.7,7,9.4,10.5,14.1l0,0c7.3,9.8,14.6,19.6,22,29.3c1.5,2,2.9,4,4.3,6l0,0
		c7.9,11.2,15.8,22.4,32.8,22.2c-19.8,7.8-43.3,1.5-55.3-14.5c-7.4-9.9-14.6-19.9-22-30.2c-3.2-4.5-6.5-9.1-9.9-13.7l0,0
		c2.6-3.1,5.1-6.2,7.6-9.2L198.8,147.3L198.8,147.3z M347.3,220.7c20.5,0,42.2-9.1,42.2-35.2l0,0c0-19.3-19.5-31.2-35-37.9
		c-1.9-0.8-9.5-4.4-13.4-6.2c-1.1-0.5-1.8-0.9-2.1-1c-14.4-6.6-22.9-20-21.6-31.9c1.5-13.2,12.6-23.4,26.7-23.4
		c22.5,0,30.1,27.5,30.1,27.5l12.1-14.5c0,0-14-14.8-42.7-14.8s-39.2,19.9-40.1,33.6c-1.4,21.2,15.2,32,26.1,36.4
		c3.8,1.5,15.1,6.2,15.1,6.2c0.4,0.2,0.8,0.3,1.3,0.5c8.4,3.3,27.6,10.8,27.6,34.5s-8.4,23.9-26.6,23.9s-40.1-33.1-40.1-33.1
		l-9.1,16.8c10.5,11.1,28.7,18.5,49.2,18.5L347.3,220.7z"/>
	<path d="M513.5,55.1h26V61h-33.3V7.9h7.3C513.5,7.9,513.5,55.1,513.5,55.1z M546.2,23.6c3.8-0.5,8.8-1.1,13.1-1.1
		c9.3,0,15.2,3.8,15.2,12.6v26H569l-0.2-4.7c-3.2,3.5-7.9,5.3-12.3,5.3c-6.5,0-12.4-3.8-12.4-11.8s3.6-10.4,12.8-11.2l10.6-1v-2.9
		c0-5.4-2.9-7.8-9.2-7.7c-3.5,0-7.9,0.6-11.5,1.1l-0.8-4.4L546.2,23.6L546.2,23.6z M558.2,42.6c-5.7,0.5-7.8,3-7.8,7.2
		s3.9,7.4,8.1,7.4c3.7,0,7-1.6,9.3-5.4V41.7L558.2,42.6z M590.7,38.2h5.8L607.7,23h8.1l-13.3,17.5l14,20.4h-8.1l-11.9-18h-5.8v18
		h-6.9V7.8h6.9V38.2L590.7,38.2z M622.2,53.6c3.1,2.1,7,3.3,10.7,3.3h0.6c4.2,0,8-1.4,8.5-4.9c0-0.5,0.2-1,0.2-1.4
		c0-3.9-3-5.2-8.3-7.2c-5.7-2.2-11.8-3.6-11.8-11.2v-1.1c0.4-5.9,6.6-8.5,13.4-8.6c4.1,0,8.4,0.8,11.8,2.2l-1,4.4
		c-2.4-1.1-5.6-1.8-8.8-2h-0.6c-4.3,0-8,1.4-8.3,4.4v1c0,4,3,4.7,7.8,6.6c6.9,2.6,12.4,4.7,12.4,11.4s0,1.4-0.2,2.1
		c-1,6.5-7.6,8.9-14,8.9s-9.3-1.2-13.4-3.6l1.1-4.3L622.2,53.6L622.2,53.6z M663.3,27.2c2.9-3.1,7.1-4.7,11.2-4.8
		c6.9,0,13.9,4.3,13.9,13.7V61h-6.9V36.1c0-6.1-4.1-8.9-8.6-9c-3.7,0-7.5,1.7-9.6,5.2V61h-6.9V7.9h6.9L663.3,27.2L663.3,27.2
		L663.3,27.2z M703.1,27.5c2.8-3.3,7-5,11-5.1c4.2,0,8.8,1.7,11.1,5.5c3.3-3.6,7.7-5.5,11.9-5.5c6.5,0,12.7,4.2,12.7,13.4v25h-6.6
		v-25c0-6-3.6-8.9-7.8-8.8c-3.1,0-6.3,1.6-8.4,4.7c0.3,1.2,0.5,2.6,0.5,4.1v25h-6.9v-25c0-6-3.7-8.8-7.8-8.8s-6.8,1.7-8.7,5.2v28.7
		h-6.7v-38h5.5l0.3,4.5L703.1,27.5z M766.1,16.1h-7.2V9.8h7.2V16.1z M766.1,61h-7V23h7V61z M782.7,38.2h5.8L799.7,23h8.1l-13.3,17.5
		l14.1,20.4h-8.1l-11.9-18h-5.8v18h-6.9V7.8h6.9L782.7,38.2L782.7,38.2z M847,52.7c-2.7,5.7-9.7,9-15.9,9c-8.3,0-16-4.5-16-13.6V23
		h6.9v25.1c0,6.1,4.3,9,8.9,8.9c3.7,0,7.3-1.7,9.3-5.2V23h6.9v29.7H847L847,52.7z M861.8,27.5c2.8-3.3,7-5,11-5.1
		c4.2,0,8.8,1.7,11.1,5.5c3.3-3.6,7.7-5.5,11.9-5.5c6.5,0,12.7,4.2,12.7,13.4v25h-6.6v-25c0-6-3.6-8.9-7.8-8.8
		c-3.1,0-6.3,1.6-8.4,4.7c0.3,1.2,0.5,2.6,0.5,4.1v25h-6.9v-25c0-6-3.7-8.8-7.8-8.8s-6.8,1.7-8.7,5.2v28.7h-6.7v-38h5.5l0.3,4.5
		L861.8,27.5z M917.9,23.6c3.8-0.5,8.8-1.1,13.1-1.1c9.3,0,15.2,3.8,15.2,12.6v26h-5.5l-0.2-4.7c-3.2,3.5-7.9,5.3-12.3,5.3
		c-6.5,0-12.4-3.8-12.4-11.8s3.6-10.4,12.8-11.2l10.5-1v-2.9c0-5.4-2.9-7.8-9.2-7.7c-3.5,0-7.9,0.6-11.5,1.1l-0.8-4.4L917.9,23.6
		L917.9,23.6z M929.9,42.6c-5.7,0.5-7.8,3-7.8,7.2s3.9,7.4,8.1,7.4c3.7,0,7-1.6,9.3-5.4V41.7L929.9,42.6z M976.7,27.8
		c-1.4-0.4-2.8-0.6-4.2-0.6c-2.1,0-4.1,0.5-5.8,1.7c-2.5,1.7-3.7,4.6-4.6,8.9v23.3h-6.9v-38h5.4l0.6,7.4c1.4-2.8,3.2-4.9,5.5-6.2
		c2-1.2,4.3-1.7,6.7-1.7s2.9,0.2,4.2,0.5L976.7,27.8C976.7,27.9,976.7,27.8,976.7,27.8z M984.3,23.6c3.8-0.5,8.8-1.1,13.1-1.1
		c9.3,0,15.2,3.8,15.2,12.6v26h-5.5v-4.7c-3.3,3.5-8,5.3-12.4,5.3c-6.5,0-12.4-3.8-12.4-11.8s3.6-10.4,12.8-11.2l10.6-1v-2.9
		c0-5.4-2.9-7.8-9.2-7.7c-3.5,0-7.9,0.6-11.5,1.1l-0.8-4.4L984.3,23.6L984.3,23.6z M996.3,42.6c-5.7,0.5-7.8,3-7.8,7.2
		s3.9,7.4,8.1,7.4c3.7,0,7-1.6,9.3-5.4V41.7L996.3,42.6z M1027.5,27.5c3-3.3,7.4-5,11.8-5.1c7,0,14.2,4.2,14.2,13.7V61h-6.9V36.1
		c0-6.1-4.2-9-8.7-9s-7.4,1.7-9.4,5.2V61h-6.9V23h5.7L1027.5,27.5L1027.5,27.5z M504.1,121.1c4.5,2.7,9.8,4.4,14.7,4.6h1.2
		c5.8,0,10.6-2.2,11.4-7.2c0.2-0.8,0.2-1.5,0.2-2.2c0-5.4-4.5-7.3-11.8-10.2c-7.7-3.1-15.6-5-15.6-15.5v-1.5
		c0.6-8.3,8.6-11.8,17.2-11.8s11.3,1.2,15.9,3.3l-1.2,5.6c-4.3-1.8-8.8-2.9-12.9-3h-0.8c-5.8,0-10.4,2.1-10.8,6.3v1.4
		c0,5.8,4.3,6.7,11,9.4c9.3,3.7,16.3,6.8,16.3,15.9s0,1.9-0.2,3c-1.3,9-9,12.5-17.6,12.5c-6.3,0-13.1-1.9-18.3-4.9l1.4-5.6
		L504.1,121.1L504.1,121.1z M568.5,97.8c-1.4-0.4-2.8-0.6-4.2-0.6c-2.1,0-4.1,0.5-5.8,1.7c-2.5,1.7-3.7,4.6-4.6,8.9v23.3H547v-38
		h5.4l0.6,7.4c1.4-2.8,3.2-4.9,5.5-6.2c2-1.2,4.3-1.7,6.7-1.7s2.9,0.2,4.3,0.5l-0.9,4.8L568.5,97.8L568.5,97.8z M583,86.1h-7.2v-6.3
		h7.2V86.1z M583,131h-7V93h7V131z M624.5,131h-5.4l-0.2-4.3c-2.4,2.9-6.2,4.8-11.1,4.9c-10.1,0.2-16.6-5.3-16.6-20.3
		s6.4-18.9,14.9-18.9s0.8,0,1.3,0c4.2,0.2,7.7,1.7,10.2,4.2V77.8h6.9L624.5,131L624.5,131z M617.5,101.7c-2.3-2.7-5.2-4.3-9-4.6
		h-1.1c-6,0-9.4,4.1-9.4,14.2s3.1,15.9,10.7,15.9s6.8-1.9,8.8-4.8V101.7z M641,97.2c2.9-3.1,7.1-4.7,11.2-4.8
		c6.9,0,13.9,4.3,13.9,13.7V131h-6.9v-24.9c0-6.1-4.1-8.9-8.6-9c-3.7,0-7.5,1.7-9.6,5.2V131h-6.9V77.9h6.9L641,97.2L641,97.2
		L641,97.2z M675.5,93.6c3.8-0.5,8.8-1.1,13.1-1.1c9.3,0,15.2,3.8,15.2,12.6v26h-5.5l-0.2-4.7c-3.2,3.5-7.9,5.3-12.3,5.3
		c-6.5,0-12.4-3.8-12.4-11.8s3.6-10.4,12.8-11.2l10.5-1v-2.9c0-5.4-2.9-7.8-9.2-7.7c-3.5,0-7.9,0.6-11.5,1.1l-0.8-4.4L675.5,93.6
		L675.5,93.6z M687.5,112.6c-5.7,0.5-7.8,3-7.8,7.2s3.9,7.4,8.1,7.4c3.7,0,7-1.6,9.3-5.4v-10.1L687.5,112.6z M734.3,97.8
		c-1.4-0.4-2.8-0.6-4.2-0.6c-2.1,0-4.1,0.5-5.8,1.7c-2.5,1.7-3.7,4.6-4.6,8.9v23.3h-6.9v-38h5.4l0.6,7.4c1.4-2.8,3.2-4.9,5.5-6.2
		c2-1.2,4.3-1.7,6.7-1.7s2.9,0.2,4.2,0.5l-0.9,4.8V97.8L734.3,97.8z M741.9,93.6c3.8-0.5,8.8-1.1,13.1-1.1c9.3,0,15.2,3.8,15.2,12.6
		v26h-5.5l-0.2-4.7c-3.2,3.5-7.9,5.3-12.3,5.3c-6.5,0-12.4-3.8-12.4-11.8s3.6-10.4,12.8-11.2l10.6-1v-2.9c0-5.4-2.9-7.8-9.2-7.7
		c-3.5,0-7.9,0.6-11.5,1.1l-0.8-4.4L741.9,93.6L741.9,93.6z M753.9,112.6c-5.7,0.5-7.8,3-7.8,7.2s3.9,7.4,8.1,7.4
		c3.7,0,7-1.6,9.3-5.4v-10.1l-9.7,0.9H753.9L753.9,112.6z M785.1,97.5c3-3.3,7.4-5,11.8-5.1c7,0,14.2,4.2,14.2,13.7V131h-6.9v-24.9
		c0-6.1-4.2-9-8.7-9s-7.4,1.7-9.4,5.2V131h-6.9V93h5.7L785.1,97.5L785.1,97.5L785.1,97.5z M505,163.6c3.8-0.5,8.8-1.1,13.1-1.1
		c9.3,0,15.2,3.8,15.2,12.6v26h-5.5l-0.2-4.7c-3.2,3.5-7.9,5.3-12.3,5.3c-6.5,0-12.4-3.8-12.4-11.8s3.6-10.4,12.8-11.2l10.6-1v-2.9
		c0-5.4-2.9-7.8-9.2-7.7c-3.5,0-7.9,0.6-11.5,1.1l-0.8-4.4L505,163.6L505,163.6z M517,182.6c-5.7,0.5-7.8,3-7.8,7.2s3.9,7.4,8.1,7.4
		c3.7,0,7-1.6,9.3-5.4v-10.1L517,182.6L517,182.6L517,182.6z M552.6,163.1h10.2v4.5h-10.2v23.5c0,2.9,0.9,4.6,2.5,5.5
		c0.9,0.6,2,0.8,3.4,0.8s2.2-0.2,3.4-0.4l0.8,3.9c-1.9,0.4-3.6,0.6-5.2,0.6s-3.2-0.2-4.4-0.8c-4-0.9-7.4-3.7-7.4-9.6v-23.5h-6.1V163
		h6.1l1.1-9.6h5.8L552.6,163.1L552.6,163.1z M582,163.1h10.2v4.5H582v23.5c0,2.9,0.9,4.6,2.5,5.5c0.9,0.6,2,0.8,3.4,0.8
		s2.2-0.2,3.4-0.4l0.8,3.9c-1.9,0.4-3.6,0.6-5.2,0.6s-3.2-0.2-4.4-0.8c-4-0.9-7.4-3.7-7.4-9.6v-23.5H569V163h6.1l1.1-9.6h5.8
		L582,163.1L582,163.1z M616.1,162.4c10.7,0,17.8,5.2,17.8,18.9s-5.6,20.3-17.8,20.3s-17.8-5.8-17.8-20.3S605.4,162.4,616.1,162.4z
		 M616.1,167.3c-7.1,0-10.9,3.1-10.9,14s3,15.5,10.9,15.5s10.9-3.3,10.9-15.5S623.1,167.3,616.1,167.3z M663.5,167.8
		c-1.4-0.4-2.8-0.6-4.2-0.6c-2.1,0-4.1,0.5-5.8,1.7c-2.5,1.7-3.7,4.6-4.6,8.9v23.3H642v-38h5.4l0.6,7.4c1.4-2.8,3.2-4.9,5.5-6.2
		c2-1.2,4.3-1.7,6.7-1.7s2.9,0.2,4.2,0.5L663.5,167.8L663.5,167.8L663.5,167.8z M676.6,167.5c3-3.3,7.4-5,11.8-5.1
		c7,0,14.2,4.2,14.2,13.7V201h-6.9v-24.9c0-6.1-4.2-9-8.7-9s-7.4,1.7-9.4,5.2V201h-6.9v-38h5.7L676.6,167.5L676.6,167.5L676.6,167.5
		z M741.4,199c-4.1,1.7-8.1,2.7-13.2,2.7c-11.5,0-17.8-5.6-17.8-20.3s6.2-18.8,16.7-18.9c5.5,0,16.2,1.4,16.2,18.4s0,1.6,0,2.4h-26
		c0.2,9.9,3.9,13.7,12.2,13.7s8-0.8,10.9-2.3l1.1,4.3L741.4,199L741.4,199z M737,179.4c-0.2-11.2-5.8-12.1-9.7-12.1
		c-6.5,0-10,3.3-10.2,12.1H737z M769.3,204c-1.8,4.6-5,7.1-8.9,8c-0.9,0.2-2,0.4-3,0.4c-2.3,0-4.8-0.5-7.2-1.5l0.8-3.7
		c1.8,0.7,3.3,1.1,4.6,1.1s1.5-0.2,2.3-0.4c2-0.7,3.5-2.2,4.6-5l0.5-1.1l-16.5-38.6h7.3l12.5,31.7l11.2-31.7h7.2l-15.5,40.9
		L769.3,204L769.3,204z M789.7,193.6c3.1,2.1,7,3.3,10.7,3.3h0.6c4.2,0,8-1.4,8.5-4.9c0-0.5,0.1-1,0.1-1.4c0-3.9-3-5.2-8.3-7.2
		c-5.7-2.2-11.8-3.6-11.8-11.2v-1.1c0.4-5.9,6.6-8.5,13.4-8.6c4.1,0,8.4,0.8,11.8,2.2l-1,4.4c-2.4-1.1-5.6-1.8-8.8-2h-0.6
		c-4.3,0-8,1.4-8.3,4.4v1c0,4,3,4.7,7.8,6.6c6.9,2.6,12.4,4.7,12.4,11.4s0,1.4-0.2,2.1c-1,6.5-7.6,8.9-14,8.9s-9.3-1.2-13.4-3.6
		L789.7,193.6L789.7,193.6L789.7,193.6z"/>
	<path class="st1" d="M499.9,228.3h316.3"/>
	<path class="st2" d="M502.5,276.9c2.8,1.6,6,2.5,8.8,2.7h1c3.3,0,5.8-1.2,6.3-3.8c0-0.5,0.1-0.8,0.1-1.2c0-2.9-2.5-4-6.6-5.6
		c-4.5-1.8-9.7-3.2-9.7-9.9s0-0.6,0-0.9c0.3-5.4,5.4-7.6,10.9-7.6c5.5,0,7.2,0.8,10.2,2.2l-0.9,4.4c-2.7-1.1-5.5-1.8-7.9-1.9H514
		c-3.2,0-5.6,1.2-5.8,3.3v0.8c0,3.1,2.4,3.6,6.1,5.1c5.6,2.3,10.2,4.3,10.2,10.1s0,1.2-0.1,1.8c-0.8,5.8-5.7,8-11.3,8
		c-4,0-8.2-1.2-11.6-2.9l0.9-4.5L502.5,276.9L502.5,276.9z M543.7,283.9h-5.8V251h5.8V283.9z M584.4,283.9h-5.7l-14.6-23.2v23.2
		h-5.5V251h5.7l14.6,23.3V251h5.5V283.9z M622,281.9c-2.5,1.6-5.8,2.4-9.6,2.4c-8.8-0.1-13.8-4.7-13.8-17.2s5.7-16.4,13.8-16.5
		c3.7,0,7.1,0.8,9.6,2.6l-0.9,4.6c-1.7-1-4.7-2.2-8-2.2c-5.6,0-8.8,2.7-8.8,11.5c0,9.5,2.6,12.2,8.8,12.2s6.4-1.1,8-2.1l0.9,4.6
		V281.9z M657.5,255.7h-15.7v8.8h13.8v4.7h-13.8v10h16.4v4.7H636V251h21.5V255.7L657.5,255.7z M704.9,284h-5.8v-25.7l-6,4.4
		l-1.6-3.9l9.2-6.7h4.2L704.9,284L704.9,284L704.9,284z M736.5,270.2c-2.5,1.8-5.2,2.5-8.1,2.5c-4.8,0-9.8-2.1-9.8-9.4
		s5.3-11.6,11.4-11.6c8.9,0,12,5,12,16.9s-6.3,15.5-13,15.6h-0.5c-3,0-6-0.8-8.5-1.9l0.8-4c2.4,0.9,5,1.6,7.4,1.6h0.4
		c3.9,0,7.5-2.4,7.9-9.1v-0.7L736.5,270.2L736.5,270.2z M730,256.2c-3.5,0-5.8,2.2-5.8,7s2.5,5.6,5.3,5.7h0.3c2.3,0,4.5-0.8,6.7-2.7
		C736.3,258.3,734.5,256.2,730,256.2L730,256.2z M767.4,251.8c4.7,0,10,1.9,10.2,7.6v0.8c0,3.7-2.1,5.9-5.2,7.3
		c3.7,1.4,6.2,3.3,6.2,7.3s0,1-0.1,1.6c-0.8,5.5-6,8-11.1,7.9c-5.9,0-11-2-11.8-7.6c0-0.7-0.1-1.3-0.1-1.9c0-3.8,1.9-6.1,6.1-7.8
		c-2.8-1.2-5-3.1-5-6.9s0-0.5,0-0.7c0.3-6.1,6.1-7.6,10.9-7.6L767.4,251.8L767.4,251.8z M767.9,265.2c3-0.9,4.8-2.2,4.8-5.1v-0.6
		c-0.1-2.8-2.5-3.7-5.2-3.7s-5.5,0.8-5.6,3.7v0.6c0,3.4,2.2,4,5.8,5.1H767.9z M766.2,269.7c-3.9,1.3-5.3,2.4-5.3,4.9s0,1,0.1,1.6
		c0.4,2.9,2.8,3.9,6.3,3.9s5.5-1.3,5.9-4.2v-1.1c0-2.9-2.1-3.6-5.9-4.8L766.2,269.7L766.2,269.7z M812.1,256.5h-14.2l-0.8,8.5
		c1.9-0.7,4.5-1.3,7-1.3s0.3,0,0.5,0c4.7,0.2,8.8,2.4,8.8,9.1s-5.5,11.5-11.8,11.5s-7.2-0.9-10-2.5l0.9-4.3c2.2,1.2,5.3,2.2,8.2,2.2
		c3.9,0,7-1.7,6.9-6.9c0-4-2.7-5.3-5.7-5.3c-2.3,0-4.8,0.8-6.5,1.7l-3.4-0.3l1.5-17h18.6V256.5L812.1,256.5z"/>
	<path class="st2" d="M20.8,360.7c-2.6,0.9-5.1,1.5-8.1,1.5c-6.8,0-11-3.2-11-12s3.8-11.1,10.2-11.1c3.3,0,9.9,0.8,9.9,10.9
		s0,1.2,0,1.7H6.9c0.1,5.1,2.3,7,6.7,7s4.7-0.5,6.4-1.3L20.8,360.7L20.8,360.7L20.8,360.7z M17.4,348.9c-0.1-5.8-3-6.2-5.1-6.2
		c-3.4,0-5.2,1.7-5.3,6.2C7,348.9,17.4,348.9,17.4,348.9z M38.7,350.7l7.6,11.1h-5.9l-5.3-8.8l-5.2,8.8H24l7.6-11.2l-7.3-11.1h5.9
		l5.1,8.8l5-8.8h5.9l-7.3,11.3L38.7,350.7L38.7,350.7z M66.2,360.6c-2,1.1-4.4,1.6-7,1.6c-6.2,0-10.3-3.2-10.3-11.8
		s4.5-11.2,10.3-11.3c2.6,0,5,0.5,7,1.7l-0.7,3.1c-1.7-0.8-3.4-1.2-5.3-1.2c-3.9,0-6.2,1.8-6.2,7.7s1.8,8.2,6.2,8.2s3.6-0.4,5.3-1.1
		L66.2,360.6L66.2,360.6z M88.5,360.7c-2.6,0.9-5.1,1.5-8.1,1.5c-6.8,0-11-3.2-11-12s3.8-11.1,10.2-11.1c3.3,0,9.9,0.8,9.9,10.9
		s0,1.2,0,1.7H74.6c0.1,5.1,2.3,7,6.7,7s4.7-0.5,6.4-1.3l0.7,3.2L88.5,360.7L88.5,360.7z M85.1,348.9c-0.1-5.8-3-6.2-5.1-6.2
		c-3.4,0-5.2,1.7-5.3,6.2H85.1z M112.1,360.7c-2.6,0.9-5.1,1.5-8.1,1.5c-6.8,0-11-3.2-11-12s3.8-11.1,10.2-11.1
		c3.3,0,9.9,0.8,9.9,10.9s0,1.2,0,1.7H98.2c0.1,5.1,2.3,7,6.7,7s4.7-0.5,6.4-1.3l0.7,3.2L112.1,360.7L112.1,360.7z M108.6,348.9
		c-0.1-5.8-3-6.2-5.1-6.2c-3.4,0-5.2,1.7-5.3,6.2H108.6z M137.2,361.8h-4.1l-0.2-2.3c-1.4,1.6-3.7,2.6-6.4,2.7c-5.8,0-10-3.1-10-12
		s4.4-11.4,9.6-11.1c2.3,0.1,4.3,0.9,5.8,2.2v-10.9h5.2v31.3L137.2,361.8L137.2,361.8z M132,344.9c-1.3-1.4-2.8-2.2-4.7-2.3h-0.5
		c-3.1,0-4.9,2.2-4.9,7.7s1.7,8.6,5.5,8.6c3.8,0,3.6-0.9,4.7-2.4V345L132,344.9L132,344.9z M147.7,335.8h-5.4v-4.2h5.4V335.8z
		 M147.6,361.8h-5.2v-22.4h5.2V361.8z M157.1,341.8c1.7-1.7,4.2-2.7,6.7-2.7c4.2,0,8.6,2.4,8.6,8.1v14.5h-5.2v-14.5
		c0-3.2-2.2-4.7-4.6-4.7s-3.8,0.9-4.8,2.6v16.6h-5.2v-22.4h4.3l0.2,2.4V341.8z M191.8,359.8c-1.5,1.2-3.3,1.9-5.5,2.1
		c-5.7,0.3-9.8-3.5-9.8-10.8c0-8.5,4.2-12,10-12c2.6,0,4.8,1,6.3,2.7l0.2-2.4h4v19.2c0,7.9-3,11.1-10,11c-3.1,0-6.9-0.8-9.5-1.5
		l0.6-3.3c1.8,0.5,5.3,1.3,7.9,1.3c4.4,0,5.8-1.7,5.8-5.7V359.8L191.8,359.8L191.8,359.8z M191.9,344.8c-1.1-1.4-2.6-2.4-4.6-2.4
		c-3.8,0-5.5,2.2-5.5,8.6s1.7,7.5,4.9,7.5s0.4,0,0.6,0c1.9-0.1,3.4-0.9,4.7-2.3L191.9,344.8L191.9,344.8L191.9,344.8z M233.8,360.7
		c-2.6,0.9-5.1,1.5-8.1,1.5c-6.8,0-11-3.2-11-12s3.8-11.1,10.2-11.1c3.3,0,9.9,0.8,9.9,10.9s0,1.2,0,1.7h-14.9c0.1,5.1,2.3,7,6.7,7
		s4.7-0.5,6.4-1.3l0.7,3.2L233.8,360.7L233.8,360.7z M230.3,348.9c-0.1-5.8-3-6.2-5.1-6.2c-3.4,0-5.2,1.7-5.3,6.2H230.3L230.3,348.9
		z M251.7,350.7l7.6,11.1h-5.9l-5.3-8.8l-5.2,8.8H237l7.6-11.2l-7.3-11.1h5.9l5.1,8.8l5-8.8h5.9l-7.3,11.3L251.7,350.7L251.7,350.7z
		 M266.9,341.8c1.6-1.6,3.9-2.7,6.8-2.7c5.7,0,9.6,3,9.6,12s-4.4,11.3-9.6,11.1c-2.3-0.2-4.3-0.9-5.8-2.2v9.2h-5.2v-29.7h4.1
		l0.2,2.4L266.9,341.8L266.9,341.8z M267.9,356.3c1.3,1.4,2.8,2.2,4.7,2.3h0.5c3.1,0,4.9-2.2,4.9-7.7s-1.7-8.6-5.5-8.6
		s-3.6,0.9-4.7,2.4v11.5L267.9,356.3L267.9,356.3z M305.9,360.7c-2.6,0.9-5.1,1.5-8.1,1.5c-6.8,0-11-3.2-11-12s3.8-11.1,10.2-11.1
		c3.3,0,9.9,0.8,9.9,10.9s0,1.2,0,1.7H292c0.1,5.1,2.3,7,6.7,7s4.7-0.5,6.4-1.3L305.9,360.7L305.9,360.7L305.9,360.7z M302.4,348.9
		c-0.1-5.8-3-6.2-5.1-6.2c-3.4,0-5.2,1.7-5.3,6.2H302.4z M327.8,360.6c-2,1.1-4.4,1.6-7,1.6c-6.2,0-10.3-3.2-10.3-11.8
		s4.5-11.2,10.3-11.3c2.6,0,5,0.5,7,1.7l-0.7,3.1c-1.7-0.8-3.4-1.2-5.3-1.2c-3.9,0-6.2,1.8-6.2,7.7s1.8,8.2,6.2,8.2s3.6-0.4,5.3-1.1
		L327.8,360.6L327.8,360.6z M339.2,339.5h5.9v3.3h-5.9v12.9c0,1.6,0.6,2.5,1.6,2.9c0.4,0.3,1.1,0.4,1.7,0.4s1.2,0,1.9-0.2l0.6,2.9
		c-1.3,0.3-2.4,0.4-3.4,0.4s-1.6,0-2.3-0.3c-2.8-0.4-5.2-2.1-5.2-6v-12.9h-3.5v-3.4h3.5l0.9-5.5h4.3v5.5L339.2,339.5L339.2,339.5z
		 M349.7,339.8c2.3-0.4,5.3-0.8,7.9-0.8c5.7,0,9.5,2.2,9.5,7.6v15.1H363l-0.2-2.6c-1.9,1.9-4.6,2.9-7.1,2.9c-3.9,0-7.4-2.2-7.4-7.1
		s2.2-6.2,7.9-6.7l5.6-0.5v-1.4c0-2.8-1.6-4-5-3.9c-2,0-4.5,0.4-6.6,0.6l-0.6-3.2H349.7L349.7,339.8z M357.2,351.3
		c-3,0.3-4.1,1.5-4.1,3.8s2,3.8,4.2,3.8c1.9,0,3.6-0.9,4.8-2.8v-5.2L357.2,351.3L357.2,351.3L357.2,351.3z M379.2,339.5h5.9v3.3
		h-5.9v12.9c0,1.6,0.6,2.5,1.6,2.9c0.4,0.3,1.1,0.4,1.7,0.4s1.2,0,1.9-0.2l0.6,2.9c-1.3,0.3-2.4,0.4-3.4,0.4s-1.6,0-2.3-0.3
		c-2.8-0.4-5.2-2.1-5.2-6v-12.9h-3.5v-3.4h3.5l0.9-5.5h4.3v5.5L379.2,339.5L379.2,339.5z M395.3,335.8h-5.4v-4.2h5.4V335.8z
		 M395.2,361.8H390v-22.4h5.2V361.8z M410.5,339.1c6.5,0,11,3.1,11,11.1s-3.6,12-11,12s-10.9-3.5-10.9-12S404.1,339.1,410.5,339.1z
		 M410.5,342.7c-3.7,0-5.7,1.6-5.7,7.5s1.6,8.4,5.7,8.4s5.7-1.6,5.7-8.4S414.2,342.7,410.5,342.7z M430.3,341.8
		c1.7-1.7,4.2-2.7,6.7-2.7c4.2,0,8.6,2.4,8.6,8.1v14.5h-5.2v-14.5c0-3.2-2.2-4.7-4.6-4.7s-3.8,0.9-4.8,2.6v16.6h-5.2v-22.4h4.3
		l0.2,2.4V341.8z M449.9,356.9c1.7,1.1,3.9,1.7,6.1,1.8h0.4c2.3,0,4.3-0.8,4.6-2.5v-0.7c0-2-1.6-2.7-4.3-3.7
		c-3.2-1.2-7.1-2.1-7.1-6.8v-0.6c0.3-3.7,4.1-5.2,8.2-5.3c2.5,0,5.2,0.5,7.3,1.3l-0.7,3.3c-1.3-0.6-3.2-1-5-1.1h-0.5
		c-2.3,0-4.2,0.7-4.4,2.1v0.5c0,2,1.7,2.4,4.1,3.4c4,1.5,7.4,2.7,7.4,6.8s0,0.8,0,1.3c-0.6,4-4.7,5.4-8.6,5.4s-5.7-0.7-8.1-1.9
		l0.8-3.2L449.9,356.9L449.9,356.9z"/>
</g>
<line class="st3" x1="1100.5" y1="7.9" x2="1100.5" y2="369.7"/>
<g>
	<path class="st2" d="M1235.3,254.9c0,5.1-1,10-3,14.7s-4.8,8.8-8.3,12.3s-7.6,6.3-12.3,8.3c-4.7,2-9.7,3-15.1,3s-10.3-1-14.9-3
		s-8.6-4.8-12.2-8.3c-3.5-3.5-6.3-7.6-8.3-12.2s-3-9.6-3-14.9v-40.7h11.5v40.7c0,7.3,2.7,13.6,8,18.9s11.6,8,18.9,8
		s13.8-2.6,19.1-7.8c5.2-5.2,7.8-11.6,7.8-19.1V117.7c0-10.3-4.3-17.9-12.8-23.1c8.5-5.1,12.8-12.8,12.8-23.1V45.2
		c0-7.5-2.6-13.8-7.8-19.1c-5.2-5.2-11.6-7.8-19.1-7.8s-7,0.7-10.2,2.1s-6,3.3-8.5,5.8s-4.4,5.3-5.9,8.5s-2.2,6.7-2.2,10.6v17.6
		h-11.5V45.3c0-5.3,1-10.4,3-15.1s4.8-8.8,8.3-12.2s7.6-6.1,12.3-8.2c4.7-2,9.6-3,14.7-3s10.4,1,15.1,3s8.8,4.8,12.3,8.3
		s6.3,7.6,8.3,12.3s3,9.6,3,14.7v26.3c0,8.8-2.7,16.4-8,23.1c5.3,6.6,8,14.3,8,23.1L1235.3,254.9L1235.3,254.9z M1215.8,71.7
		c0,5.3-1.9,9.9-5.6,13.6s-8.3,5.6-13.6,5.6h-15.4V79.4h15.4c5.1,0,7.7-2.6,7.7-7.7V45.4c0-5.1-2.6-7.7-7.7-7.7s-7.7,2.6-7.7,7.7V63
		h-11.5V45.4c0-5.3,1.9-9.9,5.6-13.6s8.3-5.6,13.6-5.6s9.9,1.9,13.6,5.6s5.6,8.3,5.6,13.6V71.7z M1215.8,254.9
		c0,5.3-1.9,9.8-5.6,13.5c-3.7,3.6-8.3,5.4-13.6,5.4s-9.9-1.9-13.6-5.6s-5.6-8.2-5.6-13.3v-40.7h11.5v40.7c0,4.9,2.6,7.4,7.7,7.4
		s7.7-2.5,7.7-7.4V117.8c0-5.1-2.6-7.7-7.7-7.7h-15.4V98.6h15.4c5.3,0,9.9,1.9,13.6,5.6s5.6,8.3,5.6,13.6V254.9L1215.8,254.9
		L1215.8,254.9z"/>
	<path class="st2" d="M1325.4,254.9c0,5.1-1,10-3,14.7s-4.8,8.8-8.3,12.3s-7.6,6.3-12.3,8.3c-4.7,2-9.7,3-15.1,3s-10.3-1-14.9-3
		s-8.6-4.8-12.2-8.3c-3.5-3.5-6.3-7.6-8.3-12.2s-3-9.6-3-14.9v-17.6h11.5v17.6c0,7.3,2.7,13.6,8,18.9s11.6,8,18.9,8
		s13.9-2.6,19.2-7.8c5.3-5.2,8-11.6,8-19.1V45.3c0-7.5-2.7-13.8-8-19.1c-5.3-5.2-11.7-7.8-19.2-7.8s-7,0.7-10.3,2.1
		c-3.2,1.4-6,3.3-8.5,5.8s-4.4,5.3-5.9,8.5s-2.2,6.7-2.2,10.6v137.1c0,7.3,2.7,13.6,8,18.9c5.3,5.3,11.6,8,18.9,8s14.4-2.8,19.5-8.3
		v53.8c0,5.3-1.9,9.9-5.8,13.6c-3.8,3.7-8.4,5.6-13.8,5.6s-9.6-1.9-13.3-5.6c-3.7-3.7-5.6-8.3-5.6-13.6v-17.6h11.5v17.6
		c0,5.1,2.5,7.7,7.4,7.7s8-2.6,8-7.7v-34.6c-1.7,0.2-3.2,0.4-4.5,0.5s-2.5,0.2-3.5,0.2c-5.3,0-10.3-1-14.9-3s-8.6-4.8-12.2-8.3
		c-3.5-3.5-6.3-7.6-8.3-12.2c-2-4.6-3-9.6-3-14.9V45.5c0-5.3,1-10.4,3-15.1s4.8-8.8,8.3-12.2s7.6-6.1,12.3-8.2c4.7-2,9.6-3,14.7-3
		s10.4,1,15.1,3s8.8,4.8,12.3,8.3s6.3,7.6,8.3,12.3s3,9.6,3,14.7v209.5L1325.4,254.9L1325.4,254.9z M1306.2,182.6
		c0,5.3-1.9,9.9-5.8,13.6c-3.8,3.7-8.4,5.6-13.8,5.6s-9.6-1.9-13.3-5.6c-3.7-3.7-5.6-8.3-5.6-13.6V45.5c0-5.3,1.8-9.8,5.4-13.5
		c3.6-3.6,8.1-5.4,13.5-5.4s10.2,1.8,13.9,5.4c3.7,3.6,5.6,8.1,5.6,13.5v137.1H1306.2L1306.2,182.6z M1294.7,45.5
		c0-4.9-2.7-7.4-8-7.4s-7.4,2.5-7.4,7.4v137.1c0,5.1,2.5,7.7,7.4,7.7s8-2.6,8-7.7V45.5L1294.7,45.5z"/>
</g>
<g>
	<text transform="matrix(1 0 0 1 1155.5 359.7)" class="st4 st5 st6">YEARS</text>
</g>
</svg>
