<?xml version="1.0" encoding="utf-8"?>
<!-- Generator: Adobe Illustrator 28.0.0, SVG Export Plug-In . SVG Version: 6.00 Build 0)  -->
<svg version="1.1" id="Layer_1" xmlns="http://www.w3.org/2000/svg" xmlns:xlink="http://www.w3.org/1999/xlink" x="0px" y="0px"
	 viewBox="0 0 50 50" style="enable-background:new 0 0 50 50;" xml:space="preserve">
<style type="text/css">
	.st0{fill:#FFFFFF;}
</style>
<g>
	<path class="st0" d="M35.7,26.5l-8.1,4.7l-8.1,4.7c-1.2,0.7-2.6-0.2-2.6-1.5V15.6c0-1.3,1.5-2.2,2.6-1.5l8.1,4.7l8.1,4.7
		C36.9,24.2,36.9,25.8,35.7,26.5z"/>
	<g>
		<path d="M42,8.9H8c-3.1,0-5.6,2.5-5.6,5.6v21c0,3.1,2.5,5.6,5.6,5.6H42c3.1,0,5.6-2.5,5.6-5.6v-21C47.6,11.4,45.1,8.9,42,8.9z
			 M35.7,26.5l-8.1,4.7l-8.1,4.7c-1.2,0.7-2.6-0.2-2.6-1.5V25v-9.4c0-1.3,1.4-2.2,2.6-1.5l8.1,4.7l8.1,4.7
			C36.9,24.2,36.9,25.8,35.7,26.5z"/>
	</g>
</g>
</svg>
