<svg width="67" height="52" viewBox="0 0 67 52" fill="none" xmlns="http://www.w3.org/2000/svg">
<path id="&#226;&#128;&#156;" d="M15.1089 25.8538H16.3086C19.5649 25.8538 22.4785 27.1106 25.0493 29.6243C27.6772 32.0808 28.9912 35.1658 28.9912 38.8792C28.9912 42.5354 27.6772 45.5632 25.0493 47.9626C22.4785 50.3049 19.2793 51.4761 15.4517 51.4761C11.2812 51.4761 7.79639 49.8193 4.99707 46.5059C2.25488 43.1353 0.883789 38.365 0.883789 32.1951C0.883789 26.5393 2.0835 21.2549 4.48291 16.3418C6.93945 11.3716 9.91016 7.45825 13.395 4.60181C16.937 1.68823 20.0791 0.231445 22.8213 0.231445C24.6494 0.231445 26.0776 0.77417 27.106 1.85962C28.1343 2.94507 28.6484 4.34473 28.6484 6.05859C28.6484 8.57227 27.5344 10.429 25.3064 11.6287C22.2786 13.2854 19.8792 15.2278 18.1082 17.4558C16.3372 19.6838 15.3374 22.4832 15.1089 25.8538ZM52.9854 25.8538H54.0994C57.2986 25.8538 60.1836 27.1106 62.7544 29.6243C65.3823 32.0808 66.6963 35.1658 66.6963 38.8792C66.6963 42.4783 65.3823 45.5061 62.7544 47.9626C60.1836 50.4192 56.9844 51.6475 53.1567 51.6475C48.9292 51.6475 45.4443 49.9336 42.7021 46.5059C39.96 43.0781 38.5889 38.3079 38.5889 32.1951C38.5889 27.7961 39.303 23.6543 40.7312 19.7695C42.1594 15.8848 43.9875 12.5142 46.2156 9.65771C48.5007 6.74414 50.9287 4.45898 53.4995 2.80225C56.1274 1.08838 58.4697 0.231445 60.5264 0.231445C62.4116 0.231445 63.8398 0.77417 64.811 1.85962C65.8394 2.88794 66.3535 4.2876 66.3535 6.05859C66.3535 8.62939 65.2395 10.4861 63.0115 11.6287C59.8694 13.3997 57.4985 15.3706 55.8989 17.5415C54.2993 19.6553 53.3281 22.426 52.9854 25.8538Z" fill="#F5F5F5"/>
</svg>
