<svg width="18" height="18" viewBox="0 0 18 18" fill="none" xmlns="http://www.w3.org/2000/svg">
<path d="M8.00088 0C3.58805 0 0 3.58649 0 7.99742C0 12.4083 3.58805 15.9948 8.00088 15.9948C10.0275 15.9948 11.8795 15.2408 13.2905 13.9955L17.1503 17.8536C17.3456 18.0488 17.6582 18.0488 17.8535 17.8536C18.0488 17.6584 18.0488 17.3381 17.8535 17.1429L14.0015 13.2926C15.2482 11.882 16.0018 10.0238 16.0018 7.99742C16.0018 3.58649 12.4137 0 8.00088 0ZM8.00088 0.999679C11.8732 0.999679 15.0016 4.12674 15.0016 7.99742C15.0016 11.868 11.8732 14.9951 8.00088 14.9951C4.12858 14.9951 1.0001 11.868 1.0001 7.99742C1.0001 4.12674 4.12855 0.999679 8.00088 0.999679Z" fill="#02214F"/>
</svg>
