<svg width="26" height="18" viewBox="0 0 26 18" fill="none" xmlns="http://www.w3.org/2000/svg">
<path id="Vector" d="M25.741 3.88392C25.741 3.88392 25.4871 2.11941 24.7051 1.34463C23.7148 0.32491 22.6078 0.319911 22.1 0.259928C18.4641 -1.43011e-07 13.0051 0 13.0051 0H12.9949C12.9949 0 7.53594 -1.43011e-07 3.9 0.259928C3.39219 0.319911 2.28516 0.32491 1.29492 1.34463C0.512891 2.11941 0.264062 3.88392 0.264062 3.88392C0.264062 3.88392 0 5.95834 0 8.02777V9.96723C0 12.0367 0.258984 14.1111 0.258984 14.1111C0.258984 14.1111 0.512891 15.8756 1.28984 16.6504C2.28008 17.6701 3.58008 17.6351 4.15898 17.7451C6.24102 17.94 13 18 13 18C13 18 18.4641 17.99 22.1 17.7351C22.6078 17.6751 23.7148 17.6701 24.7051 16.6504C25.4871 15.8756 25.741 14.1111 25.741 14.1111C25.741 14.1111 26 12.0417 26 9.96723V8.02777C26 5.95834 25.741 3.88392 25.741 3.88392ZM10.3137 12.3216V5.12857L17.3367 8.73757L10.3137 12.3216Z" fill="#02214F"/>
</svg>
