<?xml version="1.0" encoding="UTF-8"?>
<svg id="Layer_2" data-name="Layer 2" xmlns="http://www.w3.org/2000/svg" viewBox="0 0 50 50">
  <defs>
    <style>
      .cls-1 {
        fill: #fff;
        stroke-width: 0px;
      }
    </style>
  </defs>
  <g id="Layer_1-2" data-name="Layer 1">
    <g>
      <path class="cls-1" d="m39.61,26.79c.74,2.07,2.7,3.57,5.03,3.57,2.95,0,5.36-2.4,5.36-5.36s-2.4-5.36-5.36-5.36c-2.32,0-4.29,1.5-5.03,3.57h-2.11V7.14h2.11c.74,2.07,2.7,3.57,5.03,3.57,2.95,0,5.36-2.4,5.36-5.36s-2.4-5.36-5.36-5.36c-2.32,0-4.29,1.5-5.03,3.57h-3.9c-.99,0-1.79.8-1.79,1.79v17.86h-3.57v3.57h3.57v17.86c0,.99.8,1.79,1.79,1.79h3.9c.74,2.07,2.7,3.57,5.03,3.57,2.95,0,5.36-2.4,5.36-5.36s-2.4-5.36-5.36-5.36c-2.32,0-4.29,1.5-5.03,3.57h-2.11v-16.07h2.11Z"/>
      <path class="cls-1" d="m15.18,23.8v15.49l12.31-5.5c.66-.28,1.08-.93,1.08-1.64v-14.29s0,0,0-.01l-13.39,5.95Z"/>
      <path class="cls-1" d="m14.99,10.86c-.45-.19-.96-.19-1.41,0,0,0-12.59,5.42-12.64,5.45l13.35,5.93,13.35-5.93c-.05-.03-12.64-5.45-12.64-5.45Z"/>
      <path class="cls-1" d="m0,17.86v14.29c0,.71.43,1.36,1.08,1.64l12.31,5.5v-15.49L0,17.84s0,0,0,.01Z"/>
    </g>
  </g>
</svg>