<?xml version="1.0" encoding="utf-8"?>
<!-- Generator: Adobe Illustrator 28.0.0, SVG Export Plug-In . SVG Version: 6.00 Build 0)  -->
<svg version="1.1" id="Layer_1" xmlns="http://www.w3.org/2000/svg" xmlns:xlink="http://www.w3.org/1999/xlink" x="0px" y="0px"
	 viewBox="0 0 50 50" style="enable-background:new 0 0 50 50;" xml:space="preserve">
<style type="text/css">
	.st0{fill:#FFFFFF;}
</style>
<g>
	<polygon class="st0" points="23,6.9 14.9,2.7 0,11.7 6.8,16.1 	"/>
	<polygon class="st0" points="25,8 8.7,17.3 25,26.5 41.4,17.3 	"/>
	<polygon class="st0" points="23,27.6 6.8,18.4 0,22.9 14.9,31.8 	"/>
	<path class="st0" d="M14.8,34c-0.2,0-0.4-0.1-0.6-0.2l-6.7-4v6.4c0,1,0.6,2,1.5,2.5L23.3,47l0.4,0.3V29.2l-8.7,4.7L14.8,34z"/>
	<polygon class="st0" points="27,27.6 35.1,31.8 50,22.9 43.3,18.4 	"/>
	<polygon class="st0" points="27,6.9 43.3,16.1 50,11.7 35.1,2.7 	"/>
	<path class="st0" d="M35.1,34l-0.5-0.1l-9-4.7v18.1c0.6-0.1,0.5-0.1,0.6-0.3L41,38.7c0.9-0.5,1.5-1.5,1.5-2.5v-6.4l-6.7,4L35.1,34z
		"/>
</g>
</svg>
